<svg width="50" height="50" viewBox="0 0 50 50" fill="none" xmlns="http://www.w3.org/2000/svg">
<path d="M43.75 8.59375H6.25C5.6284 8.59375 5.03226 8.84068 4.59272 9.28022C4.15318 9.71976 3.90625 10.3159 3.90625 10.9375V37.5C3.90625 38.536 4.3178 39.5296 5.05036 40.2621C5.78293 40.9947 6.7765 41.4062 7.8125 41.4062H42.1875C43.2235 41.4062 44.2171 40.9947 44.9496 40.2621C45.6822 39.5296 46.0938 38.536 46.0938 37.5V10.9375C46.0938 10.3159 45.8468 9.71976 45.4073 9.28022C44.9677 8.84068 44.3716 8.59375 43.75 8.59375ZM37.7246 13.2812L25 24.9453L12.2754 13.2812H37.7246ZM8.59375 36.7188V16.2656L23.416 29.8535C23.8483 30.2499 24.4135 30.4698 25 30.4698C25.5865 30.4698 26.1517 30.2499 26.584 29.8535L41.4062 16.2656V36.7188H8.59375Z" fill="white"/>
</svg>
