<svg width="50" height="50" viewBox="0 0 50 50" fill="none" xmlns="http://www.w3.org/2000/svg">
<path d="M42.2832 15.5312L31.3457 4.59375C31.128 4.37582 30.8696 4.20292 30.585 4.08496C30.3005 3.96699 29.9955 3.90626 29.6875 3.90625H10.9375C9.9015 3.90625 8.90793 4.3178 8.17536 5.05036C7.4428 5.78293 7.03125 6.7765 7.03125 7.8125V42.1875C7.03125 43.2235 7.4428 44.2171 8.17536 44.9496C8.90793 45.6822 9.9015 46.0938 10.9375 46.0938H39.0625C40.0985 46.0938 41.0921 45.6822 41.8246 44.9496C42.5572 44.2171 42.9688 43.2235 42.9688 42.1875V17.1875C42.9687 16.5664 42.7222 15.9707 42.2832 15.5312ZM31.25 11.1328L35.7422 15.625H31.25V11.1328ZM11.7188 41.4062V8.59375H26.5625V17.9688C26.5625 18.5904 26.8094 19.1865 27.249 19.626C27.6885 20.0656 28.2846 20.3125 28.9062 20.3125H38.2812V41.4062H11.7188ZM31.3457 29.5918C31.5642 29.8095 31.7376 30.0683 31.8559 30.3532C31.9742 30.638 32.0351 30.9435 32.0351 31.252C32.0351 31.5604 31.9742 31.8659 31.8559 32.1507C31.7376 32.4356 31.5642 32.6944 31.3457 32.9121L26.6582 37.5996C26.4405 37.8181 26.1817 37.9915 25.8968 38.1098C25.612 38.2281 25.3065 38.289 24.998 38.289C24.6896 38.289 24.3841 38.2281 24.0993 38.1098C23.8144 37.9915 23.5556 37.8181 23.3379 37.5996L18.6504 32.9121C18.2101 32.4718 17.9627 31.8746 17.9627 31.252C17.9627 30.6293 18.2101 30.0321 18.6504 29.5918C19.0907 29.1515 19.6879 28.9041 20.3105 28.9041C20.9332 28.9041 21.5304 29.1515 21.9707 29.5918L22.6562 30.2734V24.2188C22.6562 23.5971 22.9032 23.001 23.3427 22.5615C23.7823 22.1219 24.3784 21.875 25 21.875C25.6216 21.875 26.2177 22.1219 26.6573 22.5615C27.0968 23.001 27.3438 23.5971 27.3438 24.2188V30.2734L28.0293 29.5859C28.2474 29.3684 28.5061 29.196 28.7909 29.0785C29.0756 28.9611 29.3807 28.9009 29.6887 28.9015C29.9967 28.902 30.3016 28.9633 30.5859 29.0817C30.8702 29.2002 31.1284 29.3735 31.3457 29.5918Z" fill="white"/>
</svg>
