<svg width="50" height="50" viewBox="0 0 50 50" fill="none" xmlns="http://www.w3.org/2000/svg">
<g clip-path="url(#clip0_1_24)">
<path d="M41.5273 14.6816C41.9765 13.0808 42.1003 11.4062 41.8913 9.75667C41.6823 8.1072 41.1448 6.51634 40.3105 5.07811C40.1049 4.72188 39.8091 4.42606 39.4529 4.22035C39.0967 4.01465 38.6926 3.90632 38.2812 3.90624C36.4054 3.90096 34.5527 4.31985 32.8616 5.13157C31.1705 5.9433 29.6848 7.12686 28.5156 8.59374H24.6094C23.4402 7.12686 21.9545 5.9433 20.2634 5.13157C18.5723 4.31985 16.7196 3.90096 14.8438 3.90624C14.4324 3.90632 14.0283 4.01465 13.6721 4.22035C13.3159 4.42606 13.0201 4.72188 12.8145 5.07811C11.9802 6.51634 11.4427 8.1072 11.2337 9.75667C11.0247 11.4062 11.1485 13.0808 11.5977 14.6816C10.6635 16.4123 10.1685 18.3458 10.1562 20.3125V21.875C10.1599 24.4981 11.0421 27.0445 12.6621 29.1076C14.282 31.1708 16.5464 32.6319 19.0938 33.2578C18.355 34.5495 17.9672 36.012 17.9688 37.5V38.2812H14.8438C13.8077 38.2812 12.8142 37.8697 12.0816 37.1371C11.3491 36.4046 10.9375 35.411 10.9375 34.375C10.9349 32.0966 10.0287 29.9122 8.41759 28.3011C6.80651 26.6901 4.62216 25.7838 2.34375 25.7812C1.72215 25.7812 1.12601 26.0282 0.686468 26.4677C0.24693 26.9072 0 27.5034 0 28.125C0 28.7466 0.24693 29.3427 0.686468 29.7823C1.12601 30.2218 1.72215 30.4687 2.34375 30.4687C3.37975 30.4687 4.37332 30.8803 5.10589 31.6129C5.83845 32.3454 6.25 33.339 6.25 34.375C6.25258 36.6534 7.15882 38.8378 8.76991 40.4488C10.381 42.0599 12.5653 42.9662 14.8438 42.9687H17.9688V45.3125C17.9688 45.9341 18.2157 46.5302 18.6552 46.9698C19.0948 47.4093 19.6909 47.6562 20.3125 47.6562C20.9341 47.6562 21.5302 47.4093 21.9698 46.9698C22.4093 46.5302 22.6562 45.9341 22.6562 45.3125V37.5C22.6562 36.464 23.0678 35.4704 23.8004 34.7379C24.5329 34.0053 25.5265 33.5937 26.5625 33.5937C27.5985 33.5937 28.5921 34.0053 29.3246 34.7379C30.0572 35.4704 30.4688 36.464 30.4688 37.5V45.3125C30.4688 45.9341 30.7157 46.5302 31.1552 46.9698C31.5948 47.4093 32.1909 47.6562 32.8125 47.6562C33.4341 47.6562 34.0302 47.4093 34.4698 46.9698C34.9093 46.5302 35.1562 45.9341 35.1562 45.3125V37.5C35.1578 36.012 34.77 34.5495 34.0312 33.2578C36.5786 32.6319 38.843 31.1708 40.4629 29.1076C42.0829 27.0445 42.9651 24.4981 42.9688 21.875V20.3125C42.9565 18.3458 42.4615 16.4123 41.5273 14.6816ZM38.2812 21.875C38.2812 23.7398 37.5405 25.5282 36.2218 26.8468C34.9032 28.1654 33.1148 28.9062 31.25 28.9062H21.875C20.0102 28.9062 18.2218 28.1654 16.9032 26.8468C15.5845 25.5282 14.8438 23.7398 14.8438 21.875V20.3125C14.8638 18.9158 15.2789 17.5534 16.041 16.3828C16.284 16.0683 16.4403 15.6956 16.4944 15.3019C16.5486 14.9081 16.4986 14.5071 16.3496 14.1387C15.6773 12.4013 15.6496 10.4806 16.2715 8.7246C17.324 8.91851 18.3253 9.3273 19.2128 9.92546C20.1003 10.5236 20.855 11.2983 21.4297 12.2012C21.6416 12.5321 21.9333 12.8045 22.278 12.9933C22.6227 13.182 23.0093 13.281 23.4023 13.2812H29.7207C30.114 13.2814 30.5011 13.1825 30.8461 12.9937C31.1912 12.805 31.4832 12.5324 31.6953 12.2012C32.2698 11.2981 33.0244 10.5232 33.9119 9.92502C34.7994 9.32683 35.8009 8.91817 36.8535 8.7246C37.4754 10.4806 37.4477 12.4013 36.7754 14.1387C36.6324 14.5099 36.5862 14.9114 36.6412 15.3053C36.6963 15.6993 36.8506 16.0728 37.0898 16.3906C37.8487 17.5595 38.2617 18.919 38.2812 20.3125V21.875Z" fill="white"/>
</g>
<defs>
<clipPath id="clip0_1_24">
<rect width="50" height="50" fill="white"/>
</clipPath>
</defs>
</svg>
