<svg width="50" height="50" viewBox="0 0 50 50" fill="none" xmlns="http://www.w3.org/2000/svg">
<path d="M42.1875 3.90625H7.8125C6.7765 3.90625 5.78293 4.3178 5.05036 5.05036C4.3178 5.78293 3.90625 6.7765 3.90625 7.8125V42.1875C3.90625 43.2235 4.3178 44.2171 5.05036 44.9496C5.78293 45.6822 6.7765 46.0938 7.8125 46.0938H42.1875C43.2235 46.0938 44.2171 45.6822 44.9496 44.9496C45.6822 44.2171 46.0938 43.2235 46.0938 42.1875V7.8125C46.0938 6.7765 45.6822 5.78293 44.9496 5.05036C44.2171 4.3178 43.2235 3.90625 42.1875 3.90625ZM41.4062 41.4062H8.59375V8.59375H41.4062V41.4062ZM21.875 34.375V24.2188C21.8755 23.7317 22.0276 23.2568 22.3104 22.8603C22.5932 22.4637 22.9925 22.1651 23.4528 22.0059C23.9132 21.8467 24.4116 21.8349 24.879 21.9721C25.3463 22.1093 25.7593 22.3887 26.0605 22.7715C27.251 22.1475 28.5823 21.8412 29.9257 21.8822C31.2691 21.9232 32.5793 22.31 33.7295 23.0054C34.8797 23.7008 35.831 24.6812 36.4915 25.8517C37.152 27.0223 37.4994 28.3434 37.5 29.6875V34.375C37.5 34.9966 37.2531 35.5927 36.8135 36.0323C36.374 36.4718 35.7779 36.7188 35.1562 36.7188C34.5346 36.7188 33.9385 36.4718 33.499 36.0323C33.0594 35.5927 32.8125 34.9966 32.8125 34.375V29.6875C32.8125 28.8587 32.4833 28.0638 31.8972 27.4778C31.3112 26.8917 30.5163 26.5625 29.6875 26.5625C28.8587 26.5625 28.0638 26.8917 27.4778 27.4778C26.8917 28.0638 26.5625 28.8587 26.5625 29.6875V34.375C26.5625 34.9966 26.3156 35.5927 25.876 36.0323C25.4365 36.4718 24.8404 36.7188 24.2188 36.7188C23.5971 36.7188 23.001 36.4718 22.5615 36.0323C22.1219 35.5927 21.875 34.9966 21.875 34.375ZM18.75 24.2188V34.375C18.75 34.9966 18.5031 35.5927 18.0635 36.0323C17.624 36.4718 17.0279 36.7188 16.4062 36.7188C15.7846 36.7188 15.1885 36.4718 14.749 36.0323C14.3094 35.5927 14.0625 34.9966 14.0625 34.375V24.2188C14.0625 23.5971 14.3094 23.001 14.749 22.5615C15.1885 22.1219 15.7846 21.875 16.4062 21.875C17.0279 21.875 17.624 22.1219 18.0635 22.5615C18.5031 23.001 18.75 23.5971 18.75 24.2188ZM13.2812 15.625C13.2812 15.0069 13.4645 14.4027 13.8079 13.8888C14.1513 13.3749 14.6393 12.9744 15.2104 12.7379C15.7814 12.5014 16.4097 12.4395 17.0159 12.56C17.6221 12.6806 18.1789 12.9783 18.616 13.4153C19.053 13.8523 19.3506 14.4092 19.4712 15.0153C19.5918 15.6215 19.5299 16.2499 19.2934 16.8209C19.0569 17.3919 18.6563 17.88 18.1424 18.2233C17.6285 18.5667 17.0243 18.75 16.4062 18.75C15.5774 18.75 14.7826 18.4208 14.1965 17.8347C13.6105 17.2487 13.2812 16.4538 13.2812 15.625Z" fill="white"/>
</svg>
