<svg width="50" height="50" viewBox="0 0 50 50" fill="none" xmlns="http://www.w3.org/2000/svg">
<g clip-path="url(#clip0_6_13)">
<path d="M36.582 31.0665C36.2602 32.6588 35.3982 34.0912 34.1419 35.1211C32.8856 36.1511 31.312 36.7155 29.6875 36.7188C25.3377 36.7142 21.1674 34.9842 18.0917 31.9084C15.0159 28.8327 13.2859 24.6624 13.2812 20.3126C13.2846 18.688 13.849 17.1145 14.879 15.8582C15.9089 14.6019 17.3412 13.7399 18.9336 13.4181C19.437 13.3184 19.9591 13.3868 20.4199 13.6126C20.8807 13.8384 21.2547 14.2092 21.4844 14.6681L23.7266 19.1602C23.9105 19.5293 23.9937 19.9403 23.968 20.3518C23.9423 20.7633 23.8085 21.1607 23.5801 21.504L21.916 24.0001C22.7728 25.7866 24.2135 27.2273 26 28.0841L28.4961 26.42C28.8393 26.1916 29.2368 26.0578 29.6483 26.0321C30.0598 26.0063 30.4708 26.0896 30.8398 26.2735L35.332 28.5157C35.7909 28.7454 36.1617 29.1194 36.3875 29.5802C36.6133 30.041 36.6816 30.5631 36.582 31.0665ZM46.0937 25.0001C46.0945 28.6133 45.1671 32.1661 43.4005 35.318C41.6339 38.4699 39.0873 41.1151 36.0047 43.0002C32.9222 44.8852 29.4072 45.9468 25.7965 46.0833C22.1859 46.2197 18.6008 45.4264 15.3848 43.7794L9.05078 45.8985C8.36125 46.1309 7.62051 46.1661 6.91207 46.0001C6.20362 45.8341 5.55562 45.4735 5.0411 44.959C4.52659 44.4445 4.16601 43.7965 4 43.088C3.834 42.3796 3.86917 41.6388 4.10156 40.9493L6.21289 34.6153C4.76306 31.7754 3.97593 28.6438 3.91068 25.4559C3.84542 22.2679 4.50374 19.1067 5.83614 16.2098C7.16853 13.313 9.14033 10.7559 11.6033 8.7308C14.0662 6.70572 16.9562 5.26535 20.056 4.518C23.1558 3.77065 26.3846 3.73576 29.4998 4.41597C32.615 5.09617 35.5354 6.47375 38.0416 8.44515C40.5477 10.4165 42.5743 12.9304 43.969 15.7978C45.3636 18.6652 46.0901 21.8115 46.0937 25.0001ZM41.4062 25.0001C41.4053 22.4836 40.8254 20.001 39.7115 17.7444C38.5977 15.4879 36.9796 13.5178 34.9825 11.9866C32.9854 10.4554 30.6629 9.40413 28.1945 8.91413C25.7262 8.42412 23.1782 8.50851 20.7477 9.16076C18.3172 9.81302 16.0693 11.0157 14.1779 12.6756C12.2865 14.3356 10.8023 16.4084 9.84019 18.7338C8.87805 21.0591 8.46374 23.5746 8.62929 26.0857C8.79484 28.5967 9.53582 31.0361 10.7949 33.2149C10.9613 33.5022 11.0648 33.8216 11.0985 34.152C11.1321 34.4823 11.0952 34.816 10.9902 35.131L9.05078 40.9493L14.8691 39.0099C15.1085 38.9301 15.359 38.8893 15.6113 38.8888C16.023 38.8895 16.4271 38.9986 16.7832 39.2052C19.2774 40.6484 22.1077 41.4092 24.9893 41.4111C27.871 41.413 30.7023 40.6558 33.1983 39.2158C35.6944 37.7759 37.7672 35.7038 39.208 33.2083C40.6489 30.7128 41.4071 27.8817 41.4062 25.0001Z" fill="white"/>
</g>
<defs>
<clipPath id="clip0_6_13">
<rect width="50" height="50" fill="white"/>
</clipPath>
</defs>
</svg>
